<?xml version="1.0" encoding="UTF-8" standalone="no"?>
<!-- Created with Inkscape (http://www.inkscape.org/) -->

<svg
   xmlns:dc="http://purl.org/dc/elements/1.1/"
   xmlns:cc="http://creativecommons.org/ns#"
   xmlns:rdf="http://www.w3.org/1999/02/22-rdf-syntax-ns#"
   xmlns:svg="http://www.w3.org/2000/svg"
   xmlns="http://www.w3.org/2000/svg"
   xmlns:sodipodi="http://sodipodi.sourceforge.net/DTD/sodipodi-0.dtd"
   xmlns:inkscape="http://www.inkscape.org/namespaces/inkscape"
   width="16"
   height="16"
   id="svg2"
   sodipodi:version="0.32"
   inkscape:version="0.92.1 r15371"
   version="1.0"
   sodipodi:docname="requested.svg"
   inkscape:output_extension="org.inkscape.output.svg.inkscape">
  <defs
     id="defs4" />
  <sodipodi:namedview
     id="base"
     pagecolor="#ffffff"
     bordercolor="#9a9a9a"
     borderopacity="1"
     inkscape:pageopacity="0.0"
     inkscape:pageshadow="2"
     inkscape:zoom="34.5625"
     inkscape:cx="8"
     inkscape:cy="8"
     inkscape:document-units="px"
     inkscape:current-layer="layer3"
     showgrid="true"
     inkscape:showpageshadow="false"
     showguides="true"
     inkscape:guide-bbox="true"
     inkscape:window-width="1366"
     inkscape:window-height="745"
     inkscape:window-x="0"
     inkscape:window-y="23"
     inkscape:window-maximized="1">
    <sodipodi:guide
       orientation="1,0"
       position="0,112"
       id="guide2383"
       inkscape:locked="false" />
    <sodipodi:guide
       orientation="0,1"
       position="26.278146,128"
       id="guide2385"
       inkscape:locked="false" />
    <sodipodi:guide
       orientation="1,0"
       position="128,54.082119"
       id="guide2387"
       inkscape:locked="false" />
    <sodipodi:guide
       orientation="0,1"
       position="78.156291,0"
       id="guide2389"
       inkscape:locked="false" />
    <inkscape:grid
       type="xygrid"
       id="grid3672"
       visible="true"
       enabled="true" />
  </sodipodi:namedview>
  <metadata
     id="metadata7">
    <rdf:RDF>
      <cc:Work
         rdf:about="">
        <dc:format>image/svg+xml</dc:format>
        <dc:type
           rdf:resource="http://purl.org/dc/dcmitype/StillImage" />
        <dc:title></dc:title>
      </cc:Work>
    </rdf:RDF>
  </metadata>
  <g
     inkscape:groupmode="layer"
     id="layer3"
     inkscape:label="Cross"
     style="display:inline"
     transform="translate(-0.4642613,-2.999982)">
    <path
       style="fill:#ececec;fill-opacity:1;stroke:none;display:inline"
       d="M 8 2 C 4.1340071 2 1 4.4101491 1 8 C 1 11.589851 4.1340071 14 8 14 C 9.064957 14 10.065093 13.770035 10.96875 13.375 L 15 15 L 13.5625 11.4375 C 14.465672 10.342799 15 9.485565 15 8 C 15 4.4101491 11.865993 2 8 2 z M 7.8925781 3.4472656 C 8.6687315 3.4472656 9.3049126 3.6237656 9.7988281 3.9765625 C 10.363303 4.3778691 10.644531 4.951982 10.644531 5.6972656 C 10.644531 6.3940396 10.387059 7.010813 9.8710938 7.5488281 C 9.5271165 7.9060355 8.9675596 8.3085003 8.1914062 8.7539062 L 8.1914062 10.089844 L 7.1660156 10.089844 L 7.1660156 8.3027344 C 7.946579 7.8617384 8.4552214 7.5373468 8.6933594 7.3300781 C 9.209325 6.8802622 9.4667969 6.3653182 9.4667969 5.7832031 C 9.4667969 4.8791609 8.9149906 4.4277344 7.8125 4.4277344 C 7.0583965 4.4277344 6.3509475 4.6328423 5.6894531 5.0429688 L 5.6367188 5.0429688 L 5.6367188 3.8574219 C 6.3555426 3.5840042 7.1076049 3.4472656 7.8925781 3.4472656 z M 7.6738281 11.121094 C 7.8766864 11.121094 8.0517369 11.194315 8.1972656 11.339844 C 8.3427944 11.485372 8.4160156 11.658469 8.4160156 11.861328 C 8.4160156 12.064186 8.3427944 12.239237 8.1972656 12.384766 C 8.0517369 12.530294 7.8766864 12.603516 7.6738281 12.603516 C 7.4709699 12.603516 7.2978726 12.530294 7.1523438 12.384766 C 7.006815 12.239237 6.9335938 12.064186 6.9335938 11.861328 C 6.9335938 11.658469 7.006815 11.485372 7.1523438 11.339844 C 7.2978725 11.194315 7.4709699 11.121094 7.6738281 11.121094 z "
       transform="translate(0.4642613,2.999982)"
       id="path2892" />
    <g
       aria-label="?"
       style="font-style:normal;font-weight:normal;font-size:40.64221573px;line-height:1.25;font-family:sans-serif;letter-spacing:0px;word-spacing:0px;fill:#ffffff;fill-opacity:1;stroke:none;stroke-width:1.01605535"
       id="text820" />
  </g>
</svg>
