<?xml version="1.0" encoding="UTF-8" standalone="no"?>
<!-- Created with Inkscape (http://www.inkscape.org/) -->

<svg
   xmlns:dc="http://purl.org/dc/elements/1.1/"
   xmlns:cc="http://creativecommons.org/ns#"
   xmlns:rdf="http://www.w3.org/1999/02/22-rdf-syntax-ns#"
   xmlns:svg="http://www.w3.org/2000/svg"
   xmlns="http://www.w3.org/2000/svg"
   xmlns:sodipodi="http://sodipodi.sourceforge.net/DTD/sodipodi-0.dtd"
   xmlns:inkscape="http://www.inkscape.org/namespaces/inkscape"
   width="22"
   height="22"
   id="svg2"
   sodipodi:version="0.32"
   inkscape:version="0.92.1 r15371"
   version="1.0"
   sodipodi:docname="muc_inactive.svg"
   inkscape:output_extension="org.inkscape.output.svg.inkscape">
  <defs
     id="defs4" />
  <sodipodi:namedview
     id="base"
     pagecolor="#ffffff"
     bordercolor="#9a9a9a"
     borderopacity="1"
     inkscape:pageopacity="0.0"
     inkscape:pageshadow="2"
     inkscape:zoom="25.136364"
     inkscape:cx="11"
     inkscape:cy="11"
     inkscape:document-units="px"
     inkscape:current-layer="layer3"
     showgrid="true"
     inkscape:showpageshadow="false"
     showguides="true"
     inkscape:guide-bbox="true"
     inkscape:window-width="1366"
     inkscape:window-height="745"
     inkscape:window-x="0"
     inkscape:window-y="23"
     inkscape:window-maximized="1">
    <sodipodi:guide
       orientation="1,0"
       position="0,112"
       id="guide2383"
       inkscape:locked="false" />
    <sodipodi:guide
       orientation="0,1"
       position="26.278146,128"
       id="guide2385"
       inkscape:locked="false" />
    <sodipodi:guide
       orientation="1,0"
       position="128,54.082119"
       id="guide2387"
       inkscape:locked="false" />
    <sodipodi:guide
       orientation="0,1"
       position="78.156291,0"
       id="guide2389"
       inkscape:locked="false" />
    <inkscape:grid
       type="xygrid"
       id="grid3672"
       visible="true"
       enabled="true" />
  </sodipodi:namedview>
  <metadata
     id="metadata7">
    <rdf:RDF>
      <cc:Work
         rdf:about="">
        <dc:format>image/svg+xml</dc:format>
        <dc:type
           rdf:resource="http://purl.org/dc/dcmitype/StillImage" />
        <dc:title></dc:title>
      </cc:Work>
    </rdf:RDF>
  </metadata>
  <g
     inkscape:groupmode="layer"
     id="layer3"
     inkscape:label="Cross"
     style="display:inline"
     transform="translate(-0.4642613,3.000018)">
    <g
       style="display:inline"
       inkscape:label="Cross"
       id="layer3-1"
       transform="translate(2,-2)">
      <path
         id="path2892-2"
         d="m 11.464261,1.999982 c -3.8659926,0 -6.9999997,2.4101491 -6.9999997,6 0,3.589851 3.1340071,6 6.9999997,6 1.064957,0 2.065093,-0.229965 2.96875,-0.625 l 4.03125,1.625 -1.4375,-3.5625 c 0.903172,-1.094701 1.4375,-1.951935 1.4375,-3.4375 0,-3.5898509 -3.134007,-6 -7,-6 z m 0,2 c 2.761424,0 5,1.790861 5,4 0,2.209139 -2.238576,4 -5,4 -2.7614234,0 -4.9999997,-1.790861 -4.9999997,-4 0,-2.209139 2.2385763,-4 4.9999997,-4 z"
         style="display:inline;fill:#ececec;fill-opacity:1;stroke:none"
         inkscape:connector-curvature="0" />
    </g>
    <path
       style="display:inline;fill:#ececec;fill-opacity:1;stroke:none"
       d="m 9.464261,3.999982 c 3.865993,0 7,2.4101491 7,6 0,3.589851 -3.134007,6 -7,6 -1.064957,0 -2.0650927,-0.229965 -2.9687497,-0.625 l -4.03125,1.625 1.4375,-3.5625 c -0.903172,-1.094701 -1.4375,-1.951935 -1.4375,-3.4375 0,-3.5898509 3.134007,-6 6.9999997,-6 z"
       id="path2892"
       inkscape:connector-curvature="0"
       sodipodi:nodetypes="ssscccss" />
  </g>
</svg>
